<svg width="38" height="38" viewBox="0 0 38 38" fill="none" xmlns="http://www.w3.org/2000/svg">
<g clip-path="url(#clip0_68_353)">
<path d="M19.3397 24.8056C22.746 24.8056 25.5074 22.0442 25.5074 18.6378C25.5074 15.2314 22.746 12.47 19.3397 12.47C15.9333 12.47 13.1719 15.2314 13.1719 18.6378C13.1719 22.0442 15.9333 24.8056 19.3397 24.8056Z" fill="#FFC0C9"/>
<path d="M14.2344 26.1867L15.5201 22.901L22.1629 21.901L22.8767 29.1743L16.1624 29.3172L14.2344 26.1867Z" fill="#FFC0C9"/>
<path d="M25.5674 19.7758C25.4873 20.0965 25.3255 20.8601 25.0728 20.8639C24.8664 20.8669 24.6688 17.5542 24.875 17.0063C25.1119 16.3768 24.4894 15.5806 24.0204 15.1718C23.1772 14.4368 21.3056 16.015 19.4025 15.3001C19.352 15.2812 19.3621 15.2833 18.7611 15.0435C16.9118 14.3057 16.8146 14.2844 16.7087 14.2739C15.8122 14.1852 14.7182 14.9188 14.2714 15.8132C13.807 16.7429 14.195 17.5404 13.7583 19.7897C13.7074 20.0519 13.6275 20.4256 13.5018 20.4311C13.2719 20.4411 13.0474 19.2134 12.9887 18.8918C12.7424 17.5445 12.5049 16.2456 12.9887 14.787C13.0414 14.6279 13.3666 14.0374 14.0149 12.8628C14.9488 11.1708 15.4185 10.3216 15.5542 10.169C16.5277 9.07429 18.2996 8.07564 19.7873 8.50143C20.5392 8.71665 20.4044 9.06264 21.3266 9.39937C22.97 9.99941 24.3984 9.26558 24.6618 9.78419C24.8013 10.0589 24.4109 10.2854 24.4052 10.8104C24.3955 11.7112 25.5348 11.9715 26.2011 12.8628C26.5593 13.342 27.1724 13.3471 25.5674 19.7758L25.5674 19.7758V19.7758Z" fill="#2F2E41"/>
<path d="M33.2088 31.615C32.9602 31.8943 32.7024 32.1679 32.4352 32.4351C28.8467 36.0236 24.0752 38 19.0002 38C14.6138 38 10.4545 36.5236 7.08951 33.8058C7.08737 33.8044 7.08594 33.8029 7.08381 33.8007C6.63738 33.4408 6.20524 33.0579 5.78809 32.6536C5.79593 32.5908 5.80451 32.5286 5.81379 32.4672C5.87237 32.0529 5.93738 31.6579 6.01022 31.2943C6.60665 28.3143 14.4545 25.1858 14.6588 25.1043C14.6617 25.1036 14.6631 25.1029 14.6631 25.1029C14.6631 25.1029 15.6731 28.8258 20.0009 28.7779C22.9488 28.7458 22.3774 25.1029 22.3774 25.1029C22.3774 25.1029 22.4131 25.11 22.4802 25.1243C23.3316 25.3051 29.2431 26.6036 31.5752 28.3758C32.2859 28.9158 32.7959 30.0658 33.1624 31.4372C33.1781 31.4958 33.1931 31.5558 33.2088 31.615Z" fill="#44BCFF"/>
<path d="M32.435 5.56501C28.8464 1.97649 24.075 0 19 0C13.925 0 9.15358 1.97649 5.56499 5.56501C1.97644 9.1536 0 13.925 0 19C0 23.6322 1.64643 28.0114 4.66357 31.4693C4.95143 31.8 5.25215 32.1221 5.56499 32.4351C5.63857 32.5086 5.71286 32.5822 5.78786 32.6536C6.20501 33.0579 6.63716 33.4408 7.08358 33.8007C7.08571 33.8029 7.08714 33.8043 7.08929 33.8057C10.4543 36.5236 14.6136 38 19 38C24.075 38 28.8464 36.0236 32.435 32.4351C32.7021 32.1679 32.96 31.8943 33.2086 31.615C36.3064 28.135 38 23.6979 38 19C38 13.925 36.0236 9.1536 32.435 5.56501ZM33.1621 31.4372C32.6 32.0765 31.9957 32.6779 31.3529 33.2358C30.1336 34.2965 28.7764 35.2022 27.3129 35.9236C26.7993 36.1772 26.2729 36.4079 25.7343 36.6143C23.6421 37.4172 21.3714 37.8571 19 37.8571C16.7114 37.8571 14.5171 37.4472 12.4864 36.6972C11.6529 36.39 10.8472 36.025 10.0736 35.6071C9.96 35.5458 9.84715 35.4836 9.735 35.4201C9.145 35.0857 8.57429 34.7208 8.02644 34.3265C7.24144 33.7636 6.50143 33.1415 5.81356 32.4671C5.42786 32.0893 5.05929 31.6957 4.70715 31.2865C1.86358 27.9836 0.142857 23.6893 0.142857 19C0.142857 8.60219 8.60214 0.142857 19 0.142857C29.3979 0.142857 37.8571 8.60219 37.8571 19C37.8571 23.7614 36.0836 28.1157 33.1621 31.4372Z" fill="#3F3D56"/>
</g>
<defs>
<clipPath id="clip0_68_353">
<rect width="38" height="38" fill="white"/>
</clipPath>
</defs>
</svg>
