<svg width="475" height="500" viewBox="0 0 475 500" fill="none" xmlns="http://www.w3.org/2000/svg">
<g clip-path="url(#clip0_30_303)">
<path d="M246.707 396.841L231.228 395.99L233.36 443.484L243.848 444.062L246.707 396.841Z" fill="#A0616A"/>
<path d="M231.986 428.469L237.366 430.909V434.167C237.366 434.167 238.654 430.394 245.612 429.556L246.449 432.713C246.449 432.713 249.155 435.805 248.704 441.41L246.965 456.421L241.716 456.311L240.846 445.87C240.846 445.87 239.395 443.504 232.759 454.778C232.759 454.778 230.314 458.505 218.945 454.72C217.382 454.199 216.295 452.744 216.312 451.097C216.321 450.188 216.674 449.348 217.813 449.044C220.712 448.271 223.547 449.237 225.415 446.918C227.283 444.599 231.986 428.469 231.986 428.469L231.986 428.469H231.986Z" fill="#2F2E41"/>
<path d="M207.956 440.421L192.477 439.569L194.609 487.064L205.098 487.641L207.956 440.421Z" fill="#A0616A"/>
<path d="M193.236 472.049L198.615 474.488V477.746C198.615 477.746 199.904 473.973 206.861 473.136L207.699 476.292C207.699 476.292 210.405 479.385 209.954 484.989L208.214 500L202.966 499.89L202.095 489.45C202.095 489.45 200.645 487.083 194.009 498.357C194.009 498.357 191.563 502.084 180.195 498.299C178.632 497.779 177.544 496.323 177.561 494.677C177.57 493.768 177.924 492.927 179.063 492.624C181.962 491.85 184.796 492.817 186.665 490.498C188.533 488.178 193.236 472.048 193.236 472.048L193.236 472.049H193.236Z" fill="#2F2E41"/>
<path d="M402.201 298.498C401.514 297.34 398.543 298.58 397.997 297.529C397.452 296.481 400.213 294.886 401.79 291.241C402.074 290.584 403.867 286.441 402.54 285.163C400.025 282.741 388.517 292.738 384.489 289.467C383.605 288.749 382.988 287.315 380.313 284.988C379.249 284.062 378.605 283.644 377.983 283.8C377.099 284.02 377.029 285.203 376.081 287.529C374.66 291.016 373.82 290.805 372.992 293.588C372.377 295.653 372.518 296.854 371.794 297.088C370.771 297.419 369.829 295.228 368.532 295.424C367.208 295.625 366.408 298.175 366.155 300.085C365.681 303.669 366.997 306.034 367.726 308.521C368.519 311.224 368.99 315.333 367.159 321.152L349.038 372.207C353.039 361.731 364.622 333.012 369.489 322.34C370.894 319.259 372.446 316.134 375.631 314.901C378.698 313.713 382.911 314.422 388.281 313.129C388.908 312.978 390.648 312.535 390.867 311.511C391.048 310.665 390.024 310.193 390.182 309.4C390.393 308.337 392.406 308.324 394.88 307.097C396.624 306.232 397.711 305.204 398.645 304.319C398.927 304.052 403.115 300.039 402.201 298.498H402.201Z" fill="#F2F2F2"/>
<path d="M330.908 325.375C330.141 325.378 329.893 327.194 329.219 327.159C328.548 327.124 328.562 325.309 327.228 323.483C326.987 323.154 325.471 321.079 324.461 321.362C322.547 321.897 324.133 330.43 321.365 331.463C320.758 331.689 319.876 331.579 317.962 332.22C317.201 332.475 316.81 332.671 316.706 333.021C316.56 333.518 317.12 333.894 317.988 335.03C319.29 336.734 318.944 337.086 320.07 338.295C320.907 339.192 321.537 339.47 321.443 339.892C321.31 340.49 319.963 340.321 319.685 341.014C319.401 341.721 320.422 342.85 321.287 343.525C322.909 344.792 324.45 344.828 325.881 345.188C327.436 345.578 329.589 346.533 331.916 349.111L351.746 372.736C347.758 367.749 337.005 353.778 333.172 348.31C332.065 346.731 330.979 345.068 331.293 343.149C331.595 341.301 333.158 339.438 334.073 336.429C334.179 336.078 334.464 335.096 334.025 334.693C333.662 334.36 333.135 334.726 332.791 334.42C332.33 334.01 332.905 333.018 333.016 331.45C333.095 330.344 332.904 329.514 332.739 328.8C332.69 328.585 331.928 325.371 330.908 325.375V325.375H330.908Z" fill="#F2F2F2"/>
<path d="M346.2 328.808L345.738 324.686L345.949 324.373C346.926 322.928 347.423 321.516 347.429 320.177C347.43 319.964 347.42 319.751 347.41 319.534C347.371 318.674 347.321 317.605 347.878 316.359C348.191 315.664 349.069 314.056 350.388 314.255C350.744 314.304 351.012 314.468 351.216 314.659C351.246 314.611 351.277 314.563 351.31 314.511C351.721 313.884 352.046 313.616 352.36 313.357C352.601 313.158 352.85 312.953 353.24 312.467C353.411 312.254 353.544 312.067 353.657 311.91C353.998 311.434 354.444 310.867 355.231 310.877C356.071 310.916 356.51 311.611 356.802 312.071C357.323 312.891 357.559 313.482 357.715 313.874C357.772 314.018 357.836 314.179 357.869 314.229C358.14 314.627 360.34 314.255 361.17 314.119C363.032 313.809 364.643 313.54 365.307 314.715C365.783 315.555 365.429 316.665 364.225 318.105C363.85 318.552 363.451 318.893 363.096 319.16C363.39 319.335 363.653 319.604 363.759 320.026C364.01 321.025 363.151 322.026 361.207 323.006C360.725 323.25 360.075 323.577 359.164 323.734C358.735 323.808 358.349 323.826 358.018 323.836C358.011 324.027 357.967 324.234 357.85 324.447C357.509 325.074 356.798 325.372 355.727 325.301C354.549 325.239 353.578 325.014 352.722 324.817C351.975 324.646 351.331 324.5 350.825 324.534C349.888 324.61 349.165 325.36 348.317 326.334L346.2 328.808H346.2H346.2Z" fill="#F2F2F2"/>
<path d="M348.342 304.262L344.472 305.755L344.116 305.63C342.47 305.052 340.979 304.929 339.682 305.263C339.475 305.316 339.272 305.379 339.064 305.444C338.243 305.701 337.221 306.02 335.875 305.797C335.123 305.671 333.345 305.23 333.203 303.902C333.161 303.546 333.25 303.245 333.383 302.999C333.33 302.982 333.276 302.964 333.217 302.946C332.506 302.707 332.164 302.461 331.834 302.223C331.58 302.04 331.319 301.852 330.75 301.598C330.501 301.486 330.286 301.404 330.105 301.336C329.558 301.126 328.897 300.839 328.707 300.075C328.532 299.253 329.093 298.651 329.463 298.252C330.125 297.541 330.637 297.163 330.976 296.912C331.101 296.821 331.24 296.717 331.28 296.673C331.596 296.31 330.678 294.276 330.337 293.508C329.564 291.786 328.896 290.295 329.863 289.355C330.555 288.682 331.719 288.742 333.417 289.542C333.945 289.791 334.376 290.091 334.724 290.366C334.819 290.037 335.012 289.715 335.393 289.505C336.296 289.009 337.483 289.586 338.923 291.218C339.282 291.622 339.763 292.168 340.146 293.009C340.326 293.406 340.441 293.775 340.535 294.092C340.721 294.05 340.933 294.041 341.169 294.099C341.862 294.271 342.331 294.882 342.533 295.936C342.772 297.092 342.801 298.088 342.827 298.966C342.851 299.732 342.874 300.392 343.035 300.872C343.346 301.76 344.255 302.269 345.412 302.842L348.342 304.262L348.342 304.262Z" fill="#F2F2F2"/>
<path d="M346.2 292.117L345.738 287.994L345.949 287.682C346.926 286.237 347.423 284.825 347.429 283.486C347.43 283.273 347.42 283.06 347.41 282.843C347.371 281.983 347.321 280.914 347.878 279.668C348.191 278.973 349.069 277.364 350.388 277.564C350.744 277.613 351.012 277.777 351.216 277.968C351.246 277.92 351.277 277.872 351.31 277.82C351.721 277.193 352.046 276.925 352.36 276.666C352.601 276.467 352.85 276.262 353.24 275.776C353.411 275.563 353.544 275.376 353.657 275.219C353.998 274.743 354.444 274.176 355.231 274.185C356.071 274.225 356.51 274.92 356.802 275.38C357.323 276.2 357.559 276.791 357.715 277.183C357.772 277.327 357.836 277.488 357.869 277.538C358.14 277.936 360.34 277.564 361.17 277.428C363.032 277.118 364.643 276.849 365.307 278.023C365.783 278.863 365.429 279.974 364.225 281.413C363.85 281.861 363.451 282.202 363.096 282.468C363.39 282.644 363.653 282.912 363.759 283.334C364.01 284.334 363.151 285.335 361.207 286.314C360.725 286.559 360.075 286.886 359.164 287.043C358.735 287.117 358.349 287.134 358.018 287.144C358.011 287.336 357.967 287.543 357.85 287.756C357.509 288.383 356.798 288.681 355.727 288.61C354.549 288.548 353.578 288.323 352.722 288.126C351.975 287.955 351.331 287.809 350.825 287.843C349.888 287.919 349.165 288.669 348.317 289.643L346.2 292.117H346.2H346.2Z" fill="#F2F2F2"/>
<path d="M350.418 372.14L349.554 371.599L349.345 370.601L349.554 371.599L348.547 371.714C348.531 371.62 348.476 371.405 348.394 371.069C347.943 369.226 346.568 363.616 345.422 354.782C344.621 348.615 344.169 342.275 344.075 335.935C343.981 329.584 344.282 324.777 344.523 320.913C344.705 317.999 344.926 315.224 345.143 312.521C345.72 305.299 346.265 298.477 345.86 290.925C345.77 289.239 345.582 285.729 343.532 281.995C342.342 279.829 340.704 277.906 338.662 276.282L339.932 274.685C342.186 276.481 343.998 278.611 345.319 281.015C347.592 285.156 347.798 288.98 347.896 290.817C348.308 298.503 347.758 305.391 347.174 312.682C346.959 315.375 346.739 318.138 346.557 321.041C346.318 324.869 346.021 329.634 346.113 335.903C346.205 342.167 346.653 348.43 347.442 354.519C348.575 363.242 349.929 368.768 350.374 370.583C350.611 371.553 350.661 371.756 350.418 372.14V372.14H350.418Z" fill="#F2F2F2"/>
<path d="M334.923 279.52C334.84 279.52 334.755 279.518 334.669 279.512C332.934 279.419 331.326 278.38 329.891 276.425C329.218 275.505 328.874 274.456 328.187 272.364C328.08 272.042 327.563 270.405 327.248 268.154C327.042 266.683 327.068 266.068 327.36 265.524C327.683 264.919 328.207 264.497 328.796 264.212C328.77 264.017 328.791 263.816 328.876 263.611C329.223 262.761 330.147 262.873 330.646 262.927C330.899 262.958 331.215 263 331.555 262.982C332.091 262.956 332.378 262.797 332.814 262.558C333.231 262.329 333.75 262.045 334.519 261.887C336.036 261.571 337.307 262.001 337.726 262.142C339.931 262.877 341.017 264.591 342.276 266.575C342.526 266.973 343.387 268.423 343.956 270.409C344.366 271.843 344.308 272.48 344.185 272.953C343.934 273.927 343.342 274.484 341.838 275.714C340.267 277.002 339.479 277.647 338.802 278.039C337.226 278.949 336.237 279.52 334.923 279.52V279.52Z" fill="#F2F2F2"/>
<path d="M118.771 367.32L128.418 367.319L133.007 330.11L118.769 330.111L118.771 367.32Z" fill="#FFB6B6"/>
<path d="M151.821 367.101C152.122 367.607 152.28 369.239 152.28 369.828C152.28 371.636 150.814 373.102 149.006 373.102H119.132C117.899 373.102 116.898 372.102 116.898 370.868V369.624C116.898 369.624 115.421 365.886 118.463 361.279C118.463 361.279 122.245 364.886 127.895 359.236L129.562 356.217L141.624 365.039L148.309 365.861C149.772 366.041 151.069 365.834 151.821 367.101H151.821Z" fill="#2F2E41"/>
<path d="M82.1671 367.32L91.8136 367.319L96.4025 330.11L82.1652 330.111L82.1671 367.32Z" fill="#FFB6B6"/>
<path d="M115.217 367.101C115.518 367.607 115.676 369.239 115.676 369.828C115.676 371.636 114.21 373.102 112.402 373.102H82.5279C81.2944 373.102 80.2943 372.102 80.2943 370.868V369.624C80.2943 369.624 78.8165 365.886 81.8591 361.279C81.8591 361.279 85.6407 364.886 91.2913 359.236L92.9576 356.217L105.02 365.039L111.705 365.861C113.168 366.041 114.465 365.834 115.217 367.101H115.217H115.217Z" fill="#2F2E41"/>
<path d="M75.0628 167.448L62.8615 195.105L78.3165 346.402L97.432 347.622L105.16 213.813L112.48 348.029L135.256 345.588L140.659 175.208L75.0628 167.448Z" fill="#2F2E41"/>
<path d="M123.135 57.229L98.6522 52.7551L93.7076 57.6997L68.5554 68.2102L72.6226 147.113C72.6226 147.113 64.4883 152.531 68.5554 159.99C72.6226 167.448 71.8091 176.396 71.8091 176.396H140.659L137.697 131.657L145.831 74.7176L126.824 65.7191L123.135 57.229H123.135L123.135 57.229Z" fill="#CCCCCC"/>
<path d="M105.39 149.153C112.345 150.813 118.84 148.57 119.896 144.144C120.952 139.717 116.17 134.784 109.211 133.124C106.441 132.422 103.543 132.395 100.76 133.043L71.1997 126.38L68.3685 140.318L97.8099 145.407C100.001 147.243 102.6 148.528 105.39 149.153L105.39 149.153H105.39Z" fill="#FFB6B6"/>
<path d="M73.436 72.2774L68.5554 68.2103C68.5554 68.2103 58.7943 73.0908 57.1675 77.158C55.5406 81.2251 45.7795 120.27 45.7795 120.27C45.7795 120.27 43.8644 141.668 48.8891 144.39C53.9138 147.113 85.6374 145.486 85.6374 145.486L88.0777 129.217L75.0628 124.337L73.436 72.2774Z" fill="#CCCCCC"/>
<path d="M112.431 50.4467C124.306 50.4467 133.932 40.8201 133.932 28.9452C133.932 17.0703 124.306 7.44373 112.431 7.44373C100.556 7.44373 90.9291 17.0703 90.9291 28.9452C90.9291 40.8201 100.556 50.4467 112.431 50.4467Z" fill="#FFB6B6"/>
<path d="M97.0094 48.0325C94.4336 48.2627 90.2287 41.6733 90.4161 35.2917C90.5367 31.1863 86.9724 30.3791 86.7076 25.0846C86.5533 21.9996 91.2921 21.0377 91.6176 18.5634C92.2074 14.0801 95.0998 11.0632 95.4609 10.6965C98.5781 7.53069 100.778 8.55985 104.444 4.89078C106.651 2.68181 106.085 2.07663 107.572 1.09684C111.861 -1.73091 119.569 1.33383 124.178 5.46215C125.773 6.89071 131.719 5.32937 134.316 9.36349C137.376 14.1164 136.665 23.8094 135.353 25.0887C134.556 25.8658 132.736 23.9671 127.801 22.7485C123.233 21.6202 127.543 27.1997 122.261 26.2634C116.016 25.1562 114.794 23.2562 112.455 24.3958C109.982 25.6004 108.051 29.3305 108.611 32.2627C108.89 33.7178 109.697 34.5291 109.242 35.269C108.411 36.6198 107.458 35.295 106.393 36.6507C105.154 38.2275 108.233 42.2727 107.653 42.6633C107.536 42.7421 107.183 42.7318 103.859 39.5355C102.532 38.2593 102.143 37.4755 101.883 37.5958C101.463 37.7906 98.7082 40.357 99.7601 42.3836C101.397 45.5375 99.302 45.6358 99.7601 47.759C100.233 49.9494 98.6464 47.8862 97.0094 48.0325H97.0094L97.0094 48.0325Z" fill="#2F2E41"/>
<path d="M92.5515 113.355L89.2978 115.796L106.38 139.385L109.633 138.572L92.5515 113.355Z" fill="#3F3D56"/>
<path d="M136.476 134.949V176.12C136.476 179.761 133.514 182.723 129.874 182.723H88.7025C85.0615 182.723 82.0995 179.761 82.0995 176.12V134.949C82.0995 131.308 85.0615 128.346 88.7025 128.346H129.874C133.514 128.346 136.476 131.308 136.476 134.949Z" fill="white"/>
<path d="M114.769 145.161H101.477C101.142 145.161 100.869 144.888 100.869 144.553C100.869 144.218 101.142 143.946 101.477 143.946H114.769C115.104 143.946 115.376 144.218 115.376 144.553C115.376 144.889 115.104 145.161 114.769 145.161Z" fill="#3F3D56"/>
<path d="M114.769 158.12H101.477C101.142 158.12 100.869 157.847 100.869 157.512C100.869 157.177 101.142 156.904 101.477 156.904H114.769C115.104 156.904 115.376 157.177 115.376 157.512C115.376 157.847 115.104 158.12 114.769 158.12Z" fill="#3F3D56"/>
<path d="M108.166 175.986H94.8742C94.5391 175.986 94.2664 175.714 94.2664 175.379C94.2664 175.044 94.5391 174.771 94.8742 174.771H108.166C108.501 174.771 108.773 175.044 108.773 175.379C108.773 175.714 108.501 175.986 108.166 175.986Z" fill="#3F3D56"/>
<path d="M121.901 151.645H94.3447C94.0097 151.645 93.737 151.372 93.737 151.037C93.737 150.702 94.0097 150.429 94.3447 150.429H121.901C122.236 150.429 122.509 150.702 122.509 151.037C122.509 151.372 122.236 151.645 121.901 151.645Z" fill="#3F3D56"/>
<path d="M119.866 152.5C113.526 155.809 110.095 161.762 112.201 165.796C114.308 169.83 121.154 170.417 127.495 167.106C130.046 165.819 132.252 163.939 133.927 161.624L160.611 147.265L153.606 134.887L128.044 150.356C125.186 150.407 122.382 151.143 119.866 152.5Z" fill="#FFB6B6"/>
<path d="M140.95 75.5311C140.95 75.5311 148.271 70.6505 153.152 83.6653C157.002 93.9329 164.143 124.198 166.986 136.518C167.741 139.788 166.649 143.204 164.14 145.434L160.879 148.333L145.017 160.127L134.203 144.39L147.338 136.471L132.358 103.976L140.95 75.5311L140.95 75.5311V75.5311Z" fill="#CCCCCC"/>
<path d="M474.26 372.84C474.26 373.217 473.954 373.523 473.577 373.523H0V372.157H473.577C473.954 372.157 474.26 372.463 474.26 372.84Z" fill="#E6E6E6"/>
<path d="M217.652 369.133C217.824 367.417 217.582 365.684 216.947 364.081L219.626 346.255L211.107 345.228L209.307 363.421C208.407 364.891 207.872 366.556 207.747 368.276C207.376 372.576 209.292 376.252 212.028 376.488C214.763 376.724 217.281 373.431 217.652 369.133L217.652 369.133Z" fill="#A0616A"/>
<path d="M242.309 263.82L235.278 300.76L226.558 320.138L221.364 357.505L208.019 361.543L212.204 314.162C212.204 314.162 225.682 270.138 229.296 265.655C232.909 261.172 242.309 263.82 242.309 263.82H242.309V263.82Z" fill="#5B21FF"/>
<path d="M249.08 228.549L240.614 256.169L269.74 265.097L278.206 237.478L249.08 228.549Z" fill="#2F2E41"/>
<path d="M263.991 247.832C272.195 247.832 278.845 241.182 278.845 232.978C278.845 224.775 272.195 218.125 263.991 218.125C255.788 218.125 249.138 224.775 249.138 232.978C249.138 241.182 255.788 247.832 263.991 247.832Z" fill="#A0616A"/>
<path d="M277.755 212.069C273.182 209.854 264.532 210.892 261.439 211.234C258.676 211.538 256.761 213.141 254.878 214.716C250.603 218.292 248.728 222.649 248.13 224.184C245.303 231.441 248.087 234.492 245.132 237.548C241.966 240.822 237.527 238.605 235.598 241.767C233.846 244.64 237.095 247.15 235.84 251.73C234.393 257.016 228.833 258.178 229.4 260.194C230.03 262.431 237.543 263.373 243.534 260.681C244.342 260.318 251.445 257.021 251.789 251.675C252.009 248.246 249.197 247.892 248.42 242.951C247.879 239.516 248.753 236.598 250.146 231.944C251.117 228.7 251.603 227.079 252.649 225.569C253.155 224.841 257.91 218.219 264.962 219.455C271.178 220.545 275.356 227.07 274.551 231.184C274.075 233.614 271.814 235.444 272.703 237.21C273.359 238.513 275.044 238.422 275.255 239.641C275.452 240.785 274.157 241.957 273.173 242.848C271.929 243.973 270.814 244.509 270.394 244.743C267.403 246.41 266.295 251.384 266.311 254.479C266.336 259.098 268.897 264.78 274.086 266.75C279.913 268.963 287.02 265.72 287.289 263.107C287.445 261.589 285.209 261.114 284.851 258.514C284.447 255.581 287.011 254.152 286.196 252.334C285.458 250.687 286.534 253.037 284.495 250.714C284.246 250.43 282.931 248.881 282.908 246.931C282.878 244.391 285.058 242.716 286.262 241.367C290.768 236.318 291.478 226.792 287.304 222.138C284.934 219.496 286.401 216.256 277.755 212.069H277.755H277.755Z" fill="#2F2E41"/>
<path d="M279.932 226.47C281.275 223.426 277.723 219.552 277.26 219.059C273.795 215.37 268.819 215.236 266.366 215.17C264.22 215.112 259.618 214.988 256.136 218.077C254.253 219.747 252.496 222.536 253.285 223.795C253.767 224.565 255.164 224.603 257.958 224.678C260.471 224.746 261.38 224.415 262.785 225.059C263.824 225.535 264.08 226.061 264.988 226.834C267.446 228.924 270.468 229.243 271.363 229.337C273.474 229.56 278.611 229.467 279.932 226.47H279.932H279.932Z" fill="#2F2E41"/>
<path d="M244.482 260.55L231.887 264.426L232.855 276.053L228.98 347.752L293.897 349.69L294.725 343.017L288.083 318.986L290.99 271.208L272.581 261.519L267.736 251.83L250.296 250.861L244.482 260.55Z" fill="#5B21FF"/>
<path d="M273.065 335.641L228.495 349.205C228.495 349.205 201.577 356.908 187.043 364.659C172.51 372.411 174.237 379.445 174.237 379.445L192.646 461.802L210.086 462.771L207.721 387.013L226.558 384.445L229.464 412.184L244.967 416.06L260.469 362.77C261.583 369.45 267.767 374.062 274.486 373.212C280.098 372.501 286.947 371.412 293.412 369.797C307.946 366.165 293.412 340.485 293.412 340.485L273.065 335.641Z" fill="#2F2E41"/>
<path d="M227.042 376.819C227.042 376.819 229.949 353.566 234.793 327.405C239.638 301.245 257.078 308.027 257.078 308.027L288.083 340.97L262.892 357.441L227.042 376.819Z" fill="#2F2E41"/>
<path d="M253.338 351.696C254.61 350.531 255.585 349.079 256.181 347.461L270.064 335.963L264.4 329.517L250.927 341.874C249.276 342.37 247.768 343.254 246.528 344.452C243.384 347.409 242.361 351.426 244.242 353.427C246.123 355.427 250.196 354.652 253.338 351.696H253.338V351.696Z" fill="#A0616A"/>
<path d="M264.867 287.672L275.956 309.273L256.919 333.822L266.501 343.853L290.321 323.77L301.494 313.246C305.547 309.43 303.438 304.398 301.43 299.206C293.412 278.475 295.35 270.724 287.599 268.786C281.293 267.21 264.867 287.672 264.867 287.672L264.867 287.672Z" fill="#5B21FF"/>
<path d="M214.073 328.329L215.885 323.254L249.6 329.054L278.24 314.553L279.69 318.541L248.513 337.03L214.073 328.329Z" fill="#E6E6E6"/>
<path d="M281.14 316.003L248.875 332.317L211.997 326.988L215.523 342.468L246.7 347.906L276.175 333.782L281.14 316.003Z" fill="#3F3D56"/>
<path d="M85.0934 140.156L86.9061 135.081L120.621 140.881L149.261 126.38L150.711 130.368L119.534 148.857L85.0934 140.156Z" fill="#E6E6E6"/>
<path d="M152.161 127.83L119.896 144.144L83.0179 138.815L86.5436 154.295L117.721 159.732L147.196 145.609L152.161 127.83Z" fill="#3F3D56"/>
</g>
<defs>
<clipPath id="clip0_30_303">
<rect width="474.26" height="500" fill="white"/>
</clipPath>
</defs>
</svg>
