<svg width="33" height="28" viewBox="0 0 33 28" fill="none" xmlns="http://www.w3.org/2000/svg">
<circle cx="18" cy="14" r="14" fill="#5B21FF"/>
<g filter="url(#filter0_d_46_298)">
<path d="M9.736 21H6.82L9.376 8.904H13.066L11.896 14.412H12.022C12.418 13.956 12.862 13.632 13.354 13.44C13.858 13.236 14.356 13.134 14.848 13.134C15.268 13.134 15.616 13.2 15.892 13.332C16.18 13.452 16.408 13.62 16.576 13.836C16.744 14.052 16.864 14.31 16.936 14.61C17.008 14.91 17.044 15.228 17.044 15.564C17.044 15.732 17.032 15.984 17.008 16.32C16.984 16.656 16.93 17.034 16.846 17.454C16.762 17.862 16.642 18.288 16.486 18.732C16.33 19.164 16.12 19.56 15.856 19.92C15.604 20.28 15.28 20.574 14.884 20.802C14.5 21.03 14.038 21.144 13.498 21.144C13.174 21.144 12.856 21.108 12.544 21.036C12.244 20.964 11.968 20.868 11.716 20.748C11.476 20.628 11.26 20.49 11.068 20.334C10.888 20.166 10.756 19.998 10.672 19.83H10.546L9.736 21ZM11.77 19.398C12.058 19.398 12.298 19.248 12.49 18.948C12.682 18.636 12.838 18.276 12.958 17.868C13.078 17.448 13.162 17.034 13.21 16.626C13.27 16.206 13.3 15.894 13.3 15.69C13.3 15.45 13.258 15.252 13.174 15.096C13.102 14.94 12.964 14.862 12.76 14.862C12.52 14.862 12.298 14.952 12.094 15.132C11.89 15.3 11.74 15.444 11.644 15.564L10.942 18.786C11.026 18.93 11.134 19.068 11.266 19.2C11.41 19.332 11.578 19.398 11.77 19.398ZM21.0033 21H17.3493L18.9873 13.26H22.6773L21.0033 21ZM23.1453 10.902C23.1453 11.178 23.0853 11.418 22.9653 11.622C22.8573 11.826 22.7073 12 22.5153 12.144C22.3353 12.288 22.1253 12.396 21.8853 12.468C21.6453 12.54 21.3993 12.576 21.1473 12.576C20.6673 12.576 20.2653 12.462 19.9413 12.234C19.6173 12.006 19.4553 11.646 19.4553 11.154C19.4553 10.89 19.5093 10.656 19.6173 10.452C19.7253 10.236 19.8693 10.062 20.0493 9.93C20.2413 9.786 20.4573 9.678 20.6973 9.606C20.9493 9.534 21.2073 9.498 21.4713 9.498C21.9393 9.498 22.3353 9.612 22.6593 9.84C22.9833 10.068 23.1453 10.422 23.1453 10.902ZM23.6307 13.26C24.0747 13.164 24.4647 13.056 24.8007 12.936C25.1367 12.816 25.4427 12.666 25.7187 12.486C26.0067 12.306 26.2767 12.084 26.5287 11.82C26.7927 11.556 27.0747 11.232 27.3747 10.848H29.2287L28.7067 13.26H30.1107L29.8767 14.466H28.4547L27.7167 17.976C27.6567 18.252 27.6087 18.498 27.5727 18.714C27.5367 18.93 27.5187 19.098 27.5187 19.218C27.5187 19.458 27.6027 19.608 27.7707 19.668C27.9507 19.728 28.2807 19.758 28.7607 19.758L28.4907 21C28.4067 21.024 28.2747 21.042 28.0947 21.054C27.9267 21.066 27.7347 21.078 27.5187 21.09C27.3147 21.114 27.0987 21.126 26.8707 21.126C26.6547 21.138 26.4627 21.144 26.2947 21.144C25.9947 21.144 25.7007 21.12 25.4127 21.072C25.1247 21.036 24.8667 20.958 24.6387 20.838C24.4107 20.706 24.2247 20.52 24.0807 20.28C23.9487 20.04 23.8827 19.716 23.8827 19.308C23.8827 19.164 23.8887 18.984 23.9007 18.768C23.9247 18.552 23.9667 18.312 24.0267 18.048L24.7827 14.466H23.3787L23.6307 13.26Z" fill="white"/>
</g>
<defs>
<filter id="filter0_d_46_298" x="0.820007" y="6.90399" width="31.2907" height="20.24" filterUnits="userSpaceOnUse" color-interpolation-filters="sRGB">
<feFlood flood-opacity="0" result="BackgroundImageFix"/>
<feColorMatrix in="SourceAlpha" type="matrix" values="0 0 0 0 0 0 0 0 0 0 0 0 0 0 0 0 0 0 127 0" result="hardAlpha"/>
<feOffset dx="-2" dy="2"/>
<feGaussianBlur stdDeviation="2"/>
<feComposite in2="hardAlpha" operator="out"/>
<feColorMatrix type="matrix" values="0 0 0 0 0.141176 0 0 0 0 0.137255 0 0 0 0 0.270588 0 0 0 1 0"/>
<feBlend mode="normal" in2="BackgroundImageFix" result="effect1_dropShadow_46_298"/>
<feBlend mode="normal" in="SourceGraphic" in2="effect1_dropShadow_46_298" result="shape"/>
</filter>
</defs>
</svg>
