<svg width="100" height="100" viewBox="0 0 100 100" fill="none" xmlns="http://www.w3.org/2000/svg">
<g clip-path="url(#clip0_118_1334)">
<path d="M50.8946 65.2779C59.8587 65.2779 67.1256 58.0111 67.1256 49.0469C67.1256 40.0828 59.8587 32.8159 50.8946 32.8159C41.9304 32.8159 34.6636 40.0828 34.6636 49.0469C34.6636 58.0111 41.9304 65.2779 50.8946 65.2779Z" fill="#FFC0C9"/>
<path d="M37.46 68.9125L40.8434 60.2659L58.3246 57.6343L60.2028 76.7747L42.5337 77.1506L37.46 68.9125Z" fill="#FFC0C9"/>
<path d="M67.2828 52.0417C67.0722 52.8856 66.6463 54.895 65.9813 54.9049C65.4381 54.9128 64.9181 46.1954 65.4608 44.7535C66.0841 43.0969 64.4459 41.0015 63.2119 39.9258C60.993 37.9917 56.0677 42.1447 51.0594 40.2634C50.9266 40.2136 50.9531 40.2192 49.3715 39.5882C44.5051 37.6465 44.2492 37.5905 43.9704 37.5628C41.6113 37.3294 38.7323 39.2599 37.5566 41.6136C36.3345 44.0603 37.3556 46.1589 36.2064 52.0783C36.0724 52.7682 35.8621 53.7516 35.5312 53.7661C34.9263 53.7925 34.3356 50.5615 34.1809 49.7153C33.5328 46.1698 32.908 42.7516 34.1809 38.9131C34.3198 38.4944 35.1756 36.9404 36.8815 33.8496C39.3391 29.3969 40.5751 27.1621 40.9323 26.7606C43.4941 23.8797 48.1571 21.2517 52.0721 22.3722C54.0508 22.9386 53.6961 23.8491 56.1229 24.7352C60.4478 26.3142 64.2065 24.3831 64.8997 25.7479C65.2669 26.4708 64.2395 27.0669 64.2246 28.4484C64.199 30.819 67.1972 31.504 68.9505 33.8495C69.8931 35.1105 71.5064 35.124 67.2828 52.0417L67.2828 52.0417V52.0417Z" fill="#2F2E41"/>
<path d="M87.3913 83.1975C86.7371 83.9325 86.0585 84.6524 85.3555 85.3555C75.9119 94.799 63.3555 100 50.0002 100C38.457 100 27.5115 96.1147 18.6563 88.9625C18.6506 88.9589 18.6468 88.955 18.6412 88.9493C17.4664 88.0021 16.3292 86.9945 15.2314 85.9306C15.2521 85.7652 15.2747 85.6016 15.2991 85.4399C15.4532 84.3497 15.6243 83.3102 15.816 82.3535C17.3856 74.5114 38.0379 66.2784 38.5754 66.064C38.5829 66.0621 38.5867 66.0603 38.5867 66.0603C38.5867 66.0603 41.2446 75.8573 52.6337 75.7314C60.3912 75.6468 58.8875 66.0603 58.8875 66.0603C58.8875 66.0603 58.9814 66.079 59.1581 66.1167C61.3987 66.5923 76.9552 70.0095 83.0924 74.6731C84.9626 76.0941 86.3047 79.1205 87.269 82.7294C87.3104 82.8836 87.3499 83.0415 87.3913 83.1975Z" fill="#44BCFF"/>
<path d="M85.3553 14.6448C75.9117 5.2013 63.3553 0 50 0C36.6447 0 24.0884 5.2013 14.6447 14.6448C5.20116 24.0884 0 36.6448 0 50C0 62.19 4.33272 73.7143 12.2726 82.814C13.0301 83.6842 13.8214 84.5319 14.6447 85.3554C14.8383 85.5489 15.0338 85.7426 15.2312 85.9305C16.329 86.9945 17.4662 88.002 18.641 88.9492C18.6466 88.9549 18.6504 88.9588 18.656 88.9625C27.5113 96.1147 38.4568 100 50 100C63.3553 100 75.9117 94.7989 85.3553 85.3554C86.0583 84.6524 86.7368 83.9324 87.391 83.1974C95.5432 74.0396 100 62.3629 100 50C100 36.6448 94.7989 24.0884 85.3553 14.6448ZM87.2688 82.7293C85.7895 84.4117 84.1992 85.9944 82.5075 87.4626C79.2989 90.2538 75.7275 92.6372 71.876 94.5358C70.5244 95.2031 69.1391 95.8101 67.7218 96.3535C62.2162 98.4663 56.2406 99.6241 50 99.6241C43.9774 99.6241 38.203 98.5452 32.859 96.5716C30.6654 95.7632 28.5451 94.8027 26.5094 93.703C26.2105 93.5415 25.9136 93.3779 25.6184 93.2107C24.0658 92.3309 22.5639 91.3705 21.1222 90.3328C19.0564 88.8516 17.109 87.2144 15.2989 85.4399C14.2838 84.4455 13.3139 83.4098 12.3872 82.3328C4.90415 73.6411 0.37594 62.3403 0.37594 50C0.37594 22.6373 22.6372 0.37594 50 0.37594C77.3628 0.37594 99.6241 22.6373 99.6241 50C99.6241 62.5301 94.9568 73.9887 87.2688 82.7293Z" fill="#3F3D56"/>
</g>
<defs>
<clipPath id="clip0_118_1334">
<rect width="100" height="100" fill="white"/>
</clipPath>
</defs>
</svg>
