<svg width="38" height="38" viewBox="0 0 38 38" fill="none" xmlns="http://www.w3.org/2000/svg">
<g clip-path="url(#clip0_39_498)">
<path d="M27.085 27.075H17.585V14.2178L25.7992 18.7178L27.085 27.075Z" fill="#2F2E41"/>
<path d="M19.3399 24.8058C22.7463 24.8058 25.5077 22.0444 25.5077 18.638C25.5077 15.2316 22.7463 12.4702 19.3399 12.4702C15.9335 12.4702 13.1721 15.2316 13.1721 18.638C13.1721 22.0444 15.9335 24.8058 19.3399 24.8058Z" fill="#FFB6B6"/>
<path d="M15.7992 25.7179L15.5206 22.9012L21.085 21.8607L24.3707 29.8607L18.6564 36.4321L14.585 28.4321L15.7992 25.7179Z" fill="#FFB6B6"/>
<path d="M32.6457 32.2207C32.5765 32.2929 32.5057 32.3643 32.435 32.435C32.2107 32.6593 31.9822 32.8771 31.7486 33.0886C28.2486 36.2629 23.7579 38 19 38C14.6136 38 10.4543 36.5236 7.08932 33.8057C7.08718 33.8043 7.08575 33.8029 7.0836 33.8007C6.98146 33.7186 6.88075 33.635 6.78003 33.55C6.79789 33.4986 6.81717 33.4479 6.83646 33.3979C7.9186 30.5786 10.0557 29.1993 11.3529 28.5957C11.9957 28.2964 12.4322 28.1871 12.4322 28.1871L13.955 25.4443L15.0272 27.4443L15.8172 28.9186L19.0586 34.9664L21.855 28.0036L22.7215 25.845L22.9436 25.2921L24 26.1143L25 26.8921L27.0136 27.3364L28.6472 27.6971L30.8657 28.1871C31.7629 28.9179 32.3086 30.3079 32.6136 32.035C32.625 32.0964 32.6357 32.1586 32.6457 32.2207Z" fill="#5B21FF"/>
<path d="M16.0956 11.6288C16.8469 10.3668 18.2267 9.50091 19.6898 9.37329C21.153 9.24567 22.6619 9.85959 23.6203 10.9725C24.1915 11.6356 24.566 12.4478 25.1227 13.1231C26.3207 14.5763 28.3635 15.4261 28.8869 17.2353C29.1153 18.0248 29.0015 18.8677 28.8859 19.6814C28.7869 20.3788 28.6878 21.0762 28.5888 21.7737C28.5117 22.3164 28.4378 22.8886 28.6413 23.3976C28.8801 23.9948 29.4515 24.386 29.8209 24.9125C30.4495 25.8083 30.4036 27.1199 29.7138 27.9695C29.4147 28.3379 29.0181 28.6158 28.7044 28.972C28.3908 29.3283 28.1582 29.8153 28.2895 30.2714C28.5412 31.145 29.9113 31.3546 30.0616 32.2512C30.1384 32.7097 29.8217 33.1675 29.4069 33.3771C28.992 33.5867 28.5036 33.5928 28.0422 33.5368C26.2883 33.3236 24.6645 32.2277 23.8106 30.6811C22.9567 29.1344 22.8945 27.1764 23.6486 25.5786C24.2679 24.2664 25.419 23.1068 25.4064 21.6558C25.3996 20.8653 25.037 20.127 24.6825 19.4205C23.9568 17.9744 23.2311 16.5282 22.5055 15.0821C22.1168 14.3075 21.6657 13.4727 20.8654 13.1399C20.2469 12.8827 19.5452 12.9825 18.8837 13.0877C18.2222 13.1929 17.5214 13.2953 16.9011 13.0425C16.2808 12.7898 15.8121 12.039 16.1076 11.4379" fill="#2F2E41"/>
<path d="M17.1766 11.6947C15.985 11.3024 14.6482 11.9321 13.8415 12.8929C13.0348 13.8536 12.6434 15.0861 12.2706 16.284C12.0571 16.9701 11.8436 17.6563 11.63 18.3424C11.4291 18.9878 11.2283 19.6333 11.0274 20.2787C10.7911 21.0379 10.5529 21.8445 10.7468 22.6156C10.887 23.173 11.2477 23.6792 11.2555 24.254C11.2636 24.8544 10.8876 25.3815 10.5581 25.8835C10.2286 26.3855 9.91926 26.9818 10.0763 27.5614C10.315 28.443 11.5407 28.9275 11.4735 29.8384C11.4511 30.1424 11.2753 30.4235 11.2785 30.7283C11.2825 31.1161 11.5862 31.4512 11.9419 31.6057C12.2976 31.7602 12.6977 31.7686 13.0855 31.7618C14.2749 31.7409 15.4621 31.5996 16.6232 31.3409C17.0699 31.2413 17.5242 31.1193 17.896 30.8524C18.2678 30.5856 18.5452 30.1435 18.4969 29.6884C18.4214 28.9792 17.6589 28.5769 17.2741 27.9764C16.8962 27.3866 16.9049 26.6393 16.742 25.958C16.518 25.0217 15.9648 24.2043 15.5495 23.3357C13.9883 20.0703 14.5348 15.9081 16.8861 13.1563C17.094 12.913 17.3211 12.6683 17.4079 12.3603C17.4946 12.0522 17.3828 11.6597 17.0815 11.552" fill="#2F2E41"/>
<path d="M32.435 5.565C28.8464 1.97643 24.075 0 19 0C13.925 0 9.15357 1.97643 5.565 5.565C1.97643 9.15357 0 13.925 0 19C0 23.6321 1.64643 28.0114 4.66357 31.4693C4.95143 31.8 5.25215 32.1221 5.565 32.435C5.63857 32.5086 5.71286 32.5821 5.78786 32.6536C5.98786 32.8471 6.19143 33.0364 6.39857 33.22C6.52429 33.3321 6.65143 33.4421 6.78 33.55C6.88072 33.635 6.98143 33.7186 7.08357 33.8007C7.08572 33.8029 7.08715 33.8043 7.08929 33.8057C10.4543 36.5236 14.6136 38 19 38C23.7579 38 28.2486 36.2629 31.7486 33.0886C31.9821 32.8771 32.2107 32.6593 32.435 32.435C32.5057 32.3643 32.5764 32.2929 32.6457 32.2207C32.8386 32.0221 33.0257 31.82 33.2086 31.615C36.3064 28.135 38 23.6979 38 19C38 13.925 36.0236 9.15357 32.435 5.565V5.565ZM33.1621 31.4371C32.9836 31.64 32.8007 31.84 32.6136 32.035C32.3221 32.3386 32.0214 32.6329 31.7107 32.9164C31.5929 33.025 31.4736 33.1307 31.3529 33.2357C30.1336 34.2964 28.7764 35.2021 27.3129 35.9236C26.7993 36.1771 26.2729 36.4079 25.7343 36.6143C23.6421 37.4171 21.3714 37.8571 19 37.8571C16.7114 37.8571 14.5171 37.4471 12.4864 36.6971C11.6529 36.39 10.8471 36.025 10.0736 35.6071C9.96 35.5457 9.84714 35.4836 9.735 35.42C9.145 35.0857 8.57428 34.7207 8.02643 34.3264C7.61714 34.0329 7.22 33.7236 6.83643 33.3979C6.70215 33.2843 6.56929 33.1693 6.43857 33.0514C6.22571 32.8621 6.01714 32.6671 5.81357 32.4671C5.42786 32.0893 5.05929 31.6957 4.70715 31.2864C1.86357 27.9836 0.142857 23.6893 0.142857 19C0.142857 8.60214 8.60214 0.142857 19 0.142857C29.3979 0.142857 37.8571 8.60214 37.8571 19C37.8571 23.7614 36.0836 28.1157 33.1621 31.4371Z" fill="#3F3D56"/>
</g>
<defs>
<clipPath id="clip0_39_498">
<rect width="38" height="38" fill="white"/>
</clipPath>
</defs>
</svg>
