<svg width="38" height="38" viewBox="0 0 38 38" fill="none" xmlns="http://www.w3.org/2000/svg">
<g clip-path="url(#clip0_39_567)">
<path d="M21.2181 27.6586L22.1225 22.0064L16.0181 19.5195L15.1138 28.1108L21.2181 27.6586Z" fill="#FFC2CB"/>
<path d="M27.3534 36.0118C26.8293 36.2673 26.2952 36.498 25.7532 36.7026C24.669 37.1128 23.5499 37.4224 22.4019 37.629C21.2798 37.8316 20.1278 37.9345 18.9758 37.9345C17.4194 37.9345 15.8721 37.7478 14.3756 37.3784C13.7897 37.2347 13.1987 37.059 12.6177 36.8543C12.5568 36.8324 12.4949 36.8104 12.434 36.7884C11.7132 36.5269 11.0044 36.2204 10.3226 35.874C10.2307 35.8281 10.1389 35.7811 10.0471 35.7312C9.94525 35.6793 9.84442 35.6245 9.74259 35.5675C9.61281 35.4966 9.48403 35.4228 9.35524 35.3479C8.924 35.0983 8.49972 34.8288 8.09441 34.5483L8.06746 34.5303C8.0435 34.5134 8.01954 34.4974 7.99658 34.4804C8.01155 34.4016 8.02554 34.3296 8.0385 34.2658C8.08842 34.0152 8.12137 33.8775 8.12137 33.8775L10.8547 28.2311L11.6164 26.6578L11.9877 26.505L14.7929 25.352H21.6492L23.8125 26.2465C23.8125 26.2465 23.8235 26.2874 23.8454 26.3663C24.0611 27.14 25.3189 31.5324 27.2706 35.8301C27.2975 35.8899 27.3255 35.9509 27.3534 36.0118L27.3534 36.0118Z" fill="#FF5621"/>
<path d="M19.6757 23.8234C23.1136 23.8234 25.9007 21.0364 25.9007 17.5984C25.9007 14.1605 23.1136 11.3734 19.6757 11.3734C16.2377 11.3734 13.4507 14.1605 13.4507 17.5984C13.4507 21.0364 16.2377 23.8234 19.6757 23.8234Z" fill="#FFC2CB"/>
<path d="M11.9986 26.4514L11.9879 26.505L10.09 35.5286L10.0736 35.6071L10.0471 35.7314C9.945 35.6793 9.84429 35.6243 9.74286 35.5679C9.61286 35.4964 9.48429 35.4229 9.355 35.3479C8.92429 35.0986 8.5 34.8286 8.09429 34.5486L8.06715 34.53C8.04358 34.5136 8.01929 34.4971 7.99643 34.4807C7.68643 34.2643 7.38429 34.0386 7.08929 33.8057C7.08715 33.8043 7.08572 33.8029 7.08358 33.8007C6.55715 33.3764 6.05001 32.92 5.565 32.435C5.25215 32.1221 4.95143 31.8 4.66357 31.4693L4.70715 31.2864L4.71144 31.2679L4.76572 31.035C5.24857 28.9957 6.88215 27.4307 8.94 27.0364L11.6743 26.5129L11.9986 26.4514H11.9986Z" fill="#FF5621"/>
<path d="M31.3855 33.3732C30.5799 34.0591 29.7163 34.6801 28.8049 35.2251C28.7161 35.2791 28.6252 35.3319 28.5344 35.3848C28.147 35.6085 27.7527 35.8171 27.3534 36.0118C26.8293 36.2673 26.2952 36.498 25.7531 36.7026L25.7112 36.5049L23.5679 26.3134L23.8454 26.3663L26.6266 26.8994C28.6841 27.2937 30.3183 28.859 30.8005 30.8985L31.3326 33.1516L31.3855 33.3732H31.3855Z" fill="#FF5621"/>
<path d="M26.8442 19.2625C26.6824 19.8654 25.8688 22.5598 23.7854 23.1268C23.3761 23.2386 22.3998 23.3674 22.6584 23.1268C22.7172 23.0719 22.7741 23.018 22.8311 22.9651C25.0922 20.8388 26.0146 19.539 25.5933 16.6539C25.3258 14.817 22.279 13.1489 20.5649 12.9832C19.8422 12.9134 18.9197 13.1579 18.3108 13.7878C17.3055 14.826 17.4712 18.0126 16.9142 19.8844C16.7645 20.3855 16.5638 20.7928 16.2753 21.0394C16.0956 21.1931 15.9808 20.9975 15.8959 20.677C15.7152 19.9962 15.6683 18.7494 15.4118 19.1017C14.67 20.123 15.3768 21.4766 15.5905 21.9988C15.6344 22.1056 15.6793 22.2084 15.7242 22.3063V22.3072C15.7502 22.3631 15.7771 22.4191 15.8031 22.472V22.473C16.5159 23.9264 17.3724 24.4465 18.1271 25.352C18.4236 25.7064 18.7041 26.1187 18.9547 26.6698C19.1264 27.0472 19.2502 27.4265 19.335 27.7988C19.7673 29.6656 19.2542 31.3617 19.1154 31.823C18.8249 32.7833 18.3258 34.4334 16.8613 35.3648C15.0224 36.5349 13.3443 35.5037 12.5417 36.6147C12.5317 36.6277 12.5227 36.6407 12.5137 36.6536C12.4838 36.6986 12.4568 36.7435 12.4339 36.7884C11.7131 36.5269 11.0043 36.2204 10.3225 35.874C10.2306 35.8281 10.1388 35.7811 10.047 35.7312C9.94513 35.6793 9.8443 35.6244 9.74247 35.5675C9.73848 35.4896 9.73448 35.4118 9.73148 35.333C9.6726 33.9822 9.76144 32.4978 10.0979 31.0173C10.3135 30.072 10.5271 29.1345 10.8546 28.2311C11.0682 27.6421 11.3297 27.067 11.6741 26.513C11.9497 26.0678 12.2771 25.6355 12.6744 25.2202C13.547 24.3088 14.3226 23.9285 14.4454 22.9661C14.6211 21.5924 13.1906 21.1792 12.6744 19.1017C12.3221 17.6812 11.9537 15.6337 12.3111 14.254C12.6485 12.9503 12.942 11.8192 13.9213 10.7111C14.1569 10.4455 16.0906 8.59869 18.3308 8.2952C19.363 8.15648 20.2834 9.47824 21.5313 9.76271C22.9658 10.0892 23.7874 10.2759 24.59 10.8898C25.9467 11.926 26.329 13.4754 26.6834 14.9149C26.961 16.041 27.3204 17.4975 26.8442 19.2624L26.8442 19.2625H26.8442Z" fill="#2F2E41"/>
<path d="M32.435 5.565C28.8464 1.97643 24.075 0 19 0C13.925 0 9.15357 1.97643 5.565 5.565C1.97643 9.15357 0 13.925 0 19C0 23.6321 1.64643 28.0114 4.66357 31.4693C4.95143 31.8 5.25215 32.1221 5.565 32.435C6.05 32.92 6.55714 33.3764 7.08357 33.8007C7.08572 33.8029 7.08714 33.8043 7.08929 33.8057C10.4543 36.5236 14.6136 38 19 38C24.075 38 28.8464 36.0236 32.435 32.435C36.0236 28.8464 38 24.075 38 19C38 13.925 36.0236 9.15357 32.435 5.565V5.565ZM31.3529 33.2357C30.1336 34.2964 28.7764 35.2021 27.3129 35.9236C26.7993 36.1771 26.2729 36.4079 25.7343 36.6143C23.6421 37.4171 21.3714 37.8571 19 37.8571C16.7114 37.8571 14.5171 37.4471 12.4864 36.6971C11.6529 36.39 10.8471 36.025 10.0736 35.6071C9.96 35.5457 9.84714 35.4836 9.735 35.42C9.145 35.0857 8.57428 34.7207 8.02643 34.3264C6.80214 33.4479 5.68714 32.4264 4.70715 31.2864C1.86357 27.9836 0.142857 23.6893 0.142857 19C0.142857 8.60214 8.60214 0.142857 19 0.142857C29.3979 0.142857 37.8571 8.60214 37.8571 19C37.8571 24.6771 35.3357 29.7764 31.3529 33.2357Z" fill="#3F3D56"/>
</g>
<defs>
<clipPath id="clip0_39_567">
<rect width="38" height="38" fill="white"/>
</clipPath>
</defs>
</svg>
