<svg width="38" height="38" viewBox="0 0 38 38" fill="none" xmlns="http://www.w3.org/2000/svg">
<g clip-path="url(#clip0_39_515)">
<path d="M19.3399 24.8059C22.7463 24.8059 25.5077 22.0445 25.5077 18.6382C25.5077 15.2318 22.7463 12.4704 19.3399 12.4704C15.9335 12.4704 13.1721 15.2318 13.1721 18.6382C13.1721 22.0445 15.9335 24.8059 19.3399 24.8059Z" fill="#FFB6B6"/>
<path d="M15.7992 25.718L15.5206 22.9013L21.085 21.8609L24.3707 29.8609L18.6564 36.4323L14.585 28.4323L15.7992 25.718Z" fill="#FFB6B6"/>
<path d="M15.4313 24.3112L16.6479 24.5861C16.6479 24.5861 15.6916 21.5536 16.0161 21.2641C16.3407 20.9746 17.1362 21.4308 17.1362 21.4308L17.972 22.3679L18.9901 21.3313C18.9901 21.3313 20.0955 19.9569 20.5283 19.5709C20.9611 19.1849 20.2659 17.752 20.2659 17.752C20.2659 17.752 26.6868 16.0207 24.2976 12.9063C24.2976 12.9063 22.8968 10.4646 22.4406 11.26C21.9844 12.0554 21.4405 10.7921 21.4405 10.7921L19.7795 11.108C19.7795 11.108 16.5013 9.17511 13.39 13.3101C10.2786 17.4451 15.4314 24.3112 15.4314 24.3112H15.4313V24.3112Z" fill="#2F2E41"/>
<path d="M30.9401 33.7821C27.5694 36.515 23.3994 38 19.0001 38C14.983 38 11.1565 36.7614 7.95581 34.4657C7.96153 34.4057 7.96724 34.3464 7.97224 34.2871C8.05724 33.3586 8.13296 32.4557 8.18295 31.7071C8.37653 28.8007 15.1572 26.8636 15.1572 26.8636C15.1572 26.8636 15.188 26.8943 15.2494 26.9479C15.6237 27.2764 17.143 28.4679 19.8072 28.8007C22.183 29.0979 22.9651 27.6886 23.2015 27.0136C23.273 26.8079 23.2944 26.67 23.2944 26.67L30.2687 29.9636C30.7237 30.6136 30.9015 32.0136 30.9365 33.5871C30.938 33.6521 30.9394 33.7164 30.9401 33.7821Z" fill="#5B21FF"/>
<path d="M32.435 5.565C28.8464 1.97643 24.075 0 19 0C13.925 0 9.15357 1.97643 5.565 5.565C1.97643 9.15357 0 13.925 0 19C0 23.6321 1.64643 28.0114 4.66357 31.4693C4.95143 31.8 5.25215 32.1221 5.565 32.435C5.63857 32.5086 5.71286 32.5821 5.78786 32.6536C5.98786 32.8471 6.19143 33.0364 6.39857 33.22C6.52429 33.3321 6.65143 33.4421 6.78 33.55C6.88072 33.635 6.98143 33.7186 7.08358 33.8007C7.08572 33.8029 7.08715 33.8043 7.08929 33.8057C7.37286 34.0343 7.66143 34.2543 7.95572 34.4657C11.1564 36.7614 14.9829 38 19 38C23.3993 38 27.5693 36.515 30.94 33.7821C31.215 33.5593 31.4843 33.3279 31.7486 33.0886C31.9821 32.8771 32.2107 32.6593 32.435 32.435C32.5057 32.3643 32.5764 32.2929 32.6457 32.2207C32.8386 32.0221 33.0257 31.82 33.2086 31.615C36.3064 28.135 38 23.6979 38 19C38 13.925 36.0236 9.15357 32.435 5.565V5.565ZM33.1621 31.4371C32.9836 31.64 32.8007 31.84 32.6136 32.035C32.3221 32.3386 32.0214 32.6329 31.7107 32.9164C31.5929 33.025 31.4736 33.1307 31.3529 33.2357C31.2157 33.355 31.0771 33.4721 30.9364 33.5871C29.8271 34.4979 28.6121 35.2836 27.3129 35.9236C26.7993 36.1771 26.2729 36.4079 25.7343 36.6143C23.6421 37.4171 21.3714 37.8571 19 37.8571C16.7114 37.8571 14.5171 37.4471 12.4864 36.6971C11.6529 36.39 10.8471 36.025 10.0736 35.6071C9.96 35.5457 9.84715 35.4836 9.735 35.42C9.145 35.0857 8.57429 34.7207 8.02643 34.3264C8.00858 34.3136 7.99 34.3 7.97215 34.2871C7.58215 34.0057 7.20286 33.7093 6.83643 33.3979C6.70215 33.2843 6.56929 33.1693 6.43857 33.0514C6.22572 32.8621 6.01715 32.6671 5.81357 32.4671C5.42786 32.0893 5.05929 31.6957 4.70715 31.2864C1.86357 27.9836 0.142857 23.6893 0.142857 19C0.142857 8.60214 8.60215 0.142857 19 0.142857C29.3979 0.142857 37.8571 8.60214 37.8571 19C37.8571 23.7614 36.0836 28.1157 33.1621 31.4371Z" fill="#3F3D56"/>
</g>
<defs>
<clipPath id="clip0_39_515">
<rect width="38" height="38" fill="white"/>
</clipPath>
</defs>
</svg>
